<svg width="440" height="954" viewBox="0 0 440 954" fill="none" xmlns="http://www.w3.org/2000/svg">
<g clip-path="url(#clip0_295_148)">
<g clip-path="url(#clip1_295_148)">
<path d="M11 420.5V525L434 442V17.5H134.767" stroke="#E50539" stroke-width="6" stroke-linecap="round"/>
<rect x="45.4668" y="493" width="6.26667" height="22" rx="3.13333" fill="#E50539"/>
<rect x="126.934" y="480" width="6.26667" height="22" rx="3.13333" fill="#E50539"/>
<rect x="208.4" y="464" width="6.26667" height="22" rx="3.13333" fill="#E50539"/>
<rect x="289.867" y="447" width="6.26667" height="22" rx="3.13333" fill="#E50539"/>
<rect x="371.333" y="432" width="6.26667" height="22" rx="3.13333" fill="#E50539"/>
<path d="M117.139 468L121.689 461.975L117.314 456.15H120.964L123.514 459.6L126.064 456.15H129.714L125.364 461.975L129.889 468H126.214L123.514 464.375L120.814 468H117.139ZM134.175 468V454.95L131.55 455.375V452.55L137.55 451.65V468H134.175Z" fill="white"/>
<path d="M195.472 454L200.022 447.975L195.647 442.15H199.297L201.847 445.6L204.397 442.15H208.047L203.697 447.975L208.222 454H204.547L201.847 450.375L199.147 454H195.472ZM209.883 454V452.375C210.333 451.408 210.925 450.542 211.658 449.775C212.391 448.992 213.191 448.217 214.058 447.45C214.708 446.867 215.241 446.383 215.658 446C216.075 445.617 216.4 445.275 216.633 444.975C216.866 444.675 217.033 444.367 217.133 444.05C217.233 443.733 217.283 443.342 217.283 442.875C217.283 441.325 216.3 440.55 214.333 440.55C213.666 440.55 213 440.625 212.333 440.775C211.683 440.908 211.058 441.092 210.458 441.325V438.35C211.091 438.133 211.825 437.967 212.658 437.85C213.508 437.717 214.316 437.65 215.083 437.65C216.95 437.65 218.35 438.117 219.283 439.05C220.233 439.967 220.708 441.217 220.708 442.8C220.708 443.9 220.433 444.842 219.883 445.625C219.35 446.392 218.65 447.15 217.783 447.9C217.1 448.5 216.45 449.083 215.833 449.65C215.216 450.2 214.7 450.783 214.283 451.4H220.858V454H209.883Z" fill="white"/>
<path d="M279.028 437L283.578 430.975L279.203 425.15H282.853L285.403 428.6L287.953 425.15H291.603L287.253 430.975L291.778 437H288.103L285.403 433.375L282.703 437H279.028ZM298.239 437.25C297.755 437.25 297.214 437.217 296.614 437.15C296.014 437.083 295.43 436.992 294.864 436.875C294.297 436.758 293.822 436.625 293.439 436.475V433.525C294.122 433.808 294.83 434.017 295.564 434.15C296.314 434.283 297.039 434.35 297.739 434.35C298.922 434.35 299.797 434.192 300.364 433.875C300.947 433.542 301.239 432.942 301.239 432.075C301.239 431.358 300.98 430.85 300.464 430.55C299.964 430.25 299.239 430.1 298.289 430.1H295.764L296.014 427.625H298.114C299.08 427.625 299.789 427.467 300.239 427.15C300.689 426.817 300.914 426.3 300.914 425.6C300.914 424.9 300.655 424.383 300.139 424.05C299.639 423.7 298.83 423.525 297.714 423.525C296.997 423.525 296.28 423.6 295.564 423.75C294.864 423.9 294.247 424.092 293.714 424.325V421.45C294.247 421.217 294.93 421.025 295.764 420.875C296.614 420.725 297.455 420.65 298.289 420.65C300.289 420.65 301.797 421.067 302.814 421.9C303.83 422.733 304.339 423.808 304.339 425.125C304.339 425.908 304.155 426.65 303.789 427.35C303.439 428.033 302.889 428.533 302.139 428.85C303.005 429.117 303.639 429.567 304.039 430.2C304.455 430.817 304.664 431.558 304.664 432.425C304.664 433.525 304.389 434.433 303.839 435.15C303.305 435.867 302.555 436.4 301.589 436.75C300.639 437.083 299.522 437.25 298.239 437.25Z" fill="#C64343"/>
<path d="M360.495 422L365.045 415.975L360.67 410.15H364.32L366.87 413.6L369.42 410.15H373.07L368.72 415.975L373.245 422H369.57L366.87 418.375L364.17 422H360.495ZM379.655 422.25C379.172 422.25 378.639 422.217 378.055 422.15C377.489 422.1 376.93 422.017 376.38 421.9C375.847 421.783 375.38 421.642 374.98 421.475V418.55C375.564 418.8 376.247 419 377.03 419.15C377.83 419.283 378.547 419.35 379.18 419.35C380.314 419.35 381.155 419.167 381.705 418.8C382.272 418.433 382.555 417.808 382.555 416.925C382.555 416.142 382.364 415.567 381.98 415.2C381.614 414.833 380.872 414.65 379.755 414.65H374.905V412.75L375.33 405.9H384.905L384.655 408.5H378.205L377.98 412.05H380.405C382.355 412.05 383.772 412.475 384.655 413.325C385.539 414.175 385.98 415.417 385.98 417.05C385.98 418.633 385.447 419.9 384.38 420.85C383.33 421.783 381.755 422.25 379.655 422.25Z" fill="#C64343"/>
<g filter="url(#filter0_d_295_148)">
<path d="M118 27.16H120.703V24.8615L118.435 24.492L118 27.16ZM118 51L118.435 53.668L120.703 53.2985V51H118ZM6 69.24H3.29687V72.419L6.4345 71.908L6 69.24ZM6 51.64L5.61502 48.9644L3.29687 49.298V51.64H6ZM28.24 48.44L28.625 51.1156L28.24 45.7369V48.44ZM27.92 48.44H25.2169V51.1431H27.92V48.44ZM27.92 28.44H30.6231V26.1028L28.3105 25.7652L27.92 28.44ZM6 25.24H3.29687V27.5772L5.60952 27.9148L6 25.24ZM6 8.92L6.4345 6.25202L3.29687 5.74103V8.92H6ZM43.12 46.36H40.4169V49.4729L43.499 49.0364L43.12 46.36ZM98.48 38.52L98.859 41.1964L101.183 40.8673V38.52H98.48ZM98.48 38.2H101.183V35.846L98.8514 35.5225L98.48 38.2ZM43.12 30.52L43.4914 27.8425L40.4169 27.416V30.52H43.12ZM115.297 27.16V51H120.703V27.16H115.297ZM117.566 48.332L5.5655 66.572L6.4345 71.908L118.435 53.668L117.566 48.332ZM8.70313 69.24V51.64H3.29687V69.24H8.70313ZM6.38498 54.3156L28.625 51.1156L27.855 45.7644L5.61502 48.9644L6.38498 54.3156ZM28.24 45.7369H27.92V51.1431H28.24V45.7369ZM30.6231 48.44V28.44H25.2169V48.44H30.6231ZM28.3105 25.7652L6.39048 22.5652L5.60952 27.9148L27.5295 31.1148L28.3105 25.7652ZM8.70313 25.24V8.92H3.29687V25.24H8.70313ZM5.5655 11.588L117.566 29.828L118.435 24.492L6.4345 6.25202L5.5655 11.588ZM43.499 49.0364L98.859 41.1964L98.101 35.8436L42.741 43.6836L43.499 49.0364ZM101.183 38.52V38.2H95.7769V38.52H101.183ZM98.8514 35.5225L43.4914 27.8425L42.7486 33.1975L98.1086 40.8775L98.8514 35.5225ZM40.4169 30.52V46.36H45.8231L45.8231 30.52H40.4169ZM118 68.6075H120.703V65.4642L117.595 65.9348L118 68.6075ZM118 86.3675L118.355 89.0472L120.703 88.7359V86.3675H118ZM31.12 97.8875L30.7647 95.2078L28.4169 95.5191V97.8875H31.12ZM31.12 98.2075H28.4169V100.576L30.7647 100.887L31.12 98.2075ZM118 109.728H120.703V107.359L118.355 107.048L118 109.728ZM118 125.888L117.595 128.56L120.703 129.031V125.888H118ZM6 108.927H3.29687V111.252L5.59528 111.6L6 108.927ZM6 85.5675L5.59528 82.8948L3.29687 83.2429V85.5675H6ZM115.297 68.6075V86.3675H120.703V68.6075H115.297ZM117.645 83.6878L30.7647 95.2078L31.4753 100.567L118.355 89.0472L117.645 83.6878ZM28.4169 97.8875V98.2075H33.8231V97.8875H28.4169ZM30.7647 100.887L117.645 112.407L118.355 107.048L31.4753 95.5278L30.7647 100.887ZM115.297 109.728V125.888H120.703V109.728H115.297ZM118.405 123.215L6.40472 106.255L5.59528 111.6L117.595 128.56L118.405 123.215ZM8.70313 108.927V85.5675H3.29687V108.927H8.70313ZM6.40472 88.2402L118.405 71.2802L117.595 65.9348L5.59528 82.8948L6.40472 88.2402ZM118 134.341H120.703V131.638H118V134.341ZM118 151.941V154.644H120.703V151.941H118ZM6 151.941H3.29687V154.644H6V151.941ZM6 134.341V131.638H3.29687V134.341H6ZM115.297 134.341V151.941H120.703V134.341H115.297ZM118 149.238H6V154.644H118V149.238ZM8.70313 151.941V134.341H3.29687V151.941H8.70313ZM6 137.044H118V131.638H6V137.044ZM118 178.723H120.703V176.424L118.435 176.055L118 178.723ZM118 202.563L118.435 205.23L120.703 204.861V202.563H118ZM6 220.803H3.29687V223.981L6.4345 223.47L6 220.803ZM6 203.203L5.61502 200.527L3.29687 200.86V203.203H6ZM28.24 200.003L28.625 202.678L28.24 197.299V200.003ZM27.92 200.003H25.2169V202.706H27.92V200.003ZM27.92 180.003H30.6231V177.665L28.3105 177.328L27.92 180.003ZM6 176.803H3.29687V179.14L5.60952 179.477L6 176.803ZM6 160.483L6.4345 157.815L3.29687 157.304V160.483H6ZM43.12 197.923H40.4169V201.035L43.499 200.599L43.12 197.923ZM98.48 190.083L98.859 192.759L101.183 192.43V190.083H98.48ZM98.48 189.763H101.183V187.408L98.8514 187.085L98.48 189.763ZM43.12 182.082L43.4914 179.405L40.4169 178.978V182.082H43.12ZM115.297 178.723V202.563H120.703V178.723H115.297ZM117.566 199.895L5.5655 218.135L6.4345 223.47L118.435 205.23L117.566 199.895ZM8.70313 220.803V203.203H3.29687V220.803H8.70313ZM6.38498 205.878L28.625 202.678L27.855 197.327L5.61502 200.527L6.38498 205.878ZM28.24 197.299H27.92V202.706H28.24V197.299ZM30.6231 200.003V180.003H25.2169V200.003H30.6231ZM28.3105 177.328L6.39048 174.128L5.60952 179.477L27.5295 182.677L28.3105 177.328ZM8.70313 176.803V160.483H3.29687V176.803H8.70313ZM5.5655 163.15L117.566 181.39L118.435 176.055L6.4345 157.815L5.5655 163.15ZM43.499 200.599L98.859 192.759L98.101 187.406L42.741 195.246L43.499 200.599ZM101.183 190.083V189.763H95.7769V190.083H101.183ZM98.8514 187.085L43.4914 179.405L42.7486 184.76L98.1086 192.44L98.8514 187.085ZM40.4169 182.082V197.923H45.8231L45.8231 182.082H40.4169ZM102 235.758V238.461H104.703V235.758H102ZM102 217.358V214.654H99.2969V217.358H102ZM118 217.358H120.703V214.654H118V217.358ZM118 271.758V274.461H120.703V271.758H118ZM102 271.758H99.2969V274.461H102V271.758ZM102 253.358H104.703V250.654H102V253.358ZM6 253.358H3.29687V256.061H6V253.358ZM6 235.758V233.054H3.29687V235.758H6ZM104.703 235.758L104.703 217.358H99.2969L99.2969 235.758H104.703ZM102 220.061H118V214.654H102V220.061ZM115.297 217.358L115.297 271.758H120.703L120.703 217.358H115.297ZM118 269.054H102V274.461H118V269.054ZM104.703 271.758V253.358H99.2969V271.758H104.703ZM102 250.654H6V256.061H102V250.654ZM8.70313 253.358V235.758H3.29687V253.358H8.70313ZM6 238.461H102V233.054H6V238.461ZM11.76 285.254L13.6059 287.228L13.6059 287.228L11.76 285.254ZM112.24 285.254L110.394 287.228L110.394 287.228L112.24 285.254ZM112.24 324.934L110.394 322.959L110.394 322.959L112.24 324.934ZM11.76 324.934L13.6059 322.959L13.6059 322.959L11.76 324.934ZM7.10313 305.094C7.10313 296.976 9.39216 291.167 13.6059 287.228L9.91407 283.279C4.31451 288.513 1.69687 295.932 1.69687 305.094H7.10313ZM13.6059 287.228C17.8637 283.248 24.0513 281.077 32.56 281.077V275.671C23.1487 275.671 15.4696 278.086 9.91407 283.279L13.6059 287.228ZM32.56 281.077H91.44V275.671H32.56V281.077ZM91.44 281.077C99.9487 281.077 106.136 283.248 110.394 287.228L114.086 283.279C108.53 278.086 100.851 275.671 91.44 275.671V281.077ZM110.394 287.228C114.608 291.167 116.897 296.976 116.897 305.094H122.303C122.303 295.932 119.685 288.513 114.086 283.279L110.394 287.228ZM116.897 305.094C116.897 313.212 114.608 319.02 110.394 322.959L114.086 326.908C119.685 321.674 122.303 314.256 122.303 305.094H116.897ZM110.394 322.959C106.136 326.939 99.9487 329.111 91.44 329.111V334.517C100.851 334.517 108.53 332.102 114.086 326.908L110.394 322.959ZM91.44 329.111H32.56V334.517H91.44V329.111ZM32.56 329.111C24.0513 329.111 17.8637 326.939 13.6059 322.959L9.91407 326.908C15.4696 332.102 23.1487 334.517 32.56 334.517V329.111ZM13.6059 322.959C9.39216 319.02 7.10313 313.212 7.10313 305.094H1.69687C1.69687 314.256 4.31451 321.674 9.91407 326.908L13.6059 322.959ZM17.6969 305.094C17.6969 308.701 18.8134 311.849 21.4384 314.018C23.9646 316.105 27.4556 316.917 31.44 316.917V311.511C28.0644 311.511 26.0354 310.803 24.8816 309.85C23.8266 308.978 23.1031 307.567 23.1031 305.094H17.6969ZM31.44 316.917H92.56V311.511H31.44V316.917ZM92.56 316.917C96.5444 316.917 100.035 316.105 102.562 314.018C105.187 311.849 106.303 308.701 106.303 305.094H100.897C100.897 307.567 100.173 308.978 99.1184 309.85C97.9646 310.803 95.9356 311.511 92.56 311.511V316.917ZM106.303 305.094C106.303 301.487 105.187 298.338 102.562 296.17C100.035 294.083 96.5444 293.271 92.56 293.271V298.677C95.9356 298.677 97.9646 299.385 99.1184 300.338C100.173 301.209 100.897 302.621 100.897 305.094H106.303ZM92.56 293.271H31.44V298.677H92.56V293.271ZM31.44 293.271C27.4556 293.271 23.9646 294.083 21.4384 296.17C18.8134 298.338 17.6969 301.487 17.6969 305.094H23.1031C23.1031 302.621 23.8266 301.209 24.8816 300.338C26.0354 299.385 28.0644 298.677 31.44 298.677V293.271ZM118 343.716H120.703V341.013H118V343.716ZM111.6 389.636L109.713 387.701L109.701 387.713L109.689 387.725L111.6 389.636ZM63.28 384.356L65.7874 383.346L65.1054 381.653H63.28V384.356ZM62.96 384.356V381.653H60.9488L60.3709 383.58L62.96 384.356ZM55.12 393.316L54.0471 390.835L54.0191 390.847L53.9914 390.86L55.12 393.316ZM11.76 396.356L11.477 393.668L11.4693 393.669L11.4615 393.67L11.76 396.356ZM6 397.956H3.29687V402.116L7.09785 400.426L6 397.956ZM6 380.036L5.10034 377.487L3.29687 378.124V380.036H6ZM50.96 375.876L49.285 373.755L49.2515 373.781L49.2188 373.809L50.96 375.876ZM54 361.316H56.7031V358.613H54V361.316ZM6 361.316H3.29687V364.019H6V361.316ZM6 343.716V341.013H3.29687V343.716H6ZM72.72 375.556L74.6314 373.645L74.6025 373.616L74.5726 373.588L72.72 375.556ZM99.28 376.036L97.638 373.889L97.5992 373.919L97.5616 373.95L99.28 376.036ZM102 361.316H104.703V358.613H102V361.316ZM70 361.316V358.613H67.2969V361.316H70ZM115.297 343.716V369.796H120.703V343.716H115.297ZM115.297 369.796C115.297 378.509 113.24 384.262 109.713 387.701L113.487 391.572C118.494 386.69 120.703 379.217 120.703 369.796H115.297ZM109.689 387.725C106.237 391.177 100.616 393.173 92.24 393.173V398.579C101.358 398.579 108.643 396.416 113.511 391.548L109.689 387.725ZM92.24 393.173H85.36V398.579H92.24V393.173ZM85.36 393.173C79.8177 393.173 75.5411 392.254 72.3704 390.6C69.2595 388.977 67.0928 386.587 65.7874 383.346L60.7726 385.366C62.5605 389.805 65.6205 393.176 69.8696 395.393C74.0589 397.579 79.2756 398.579 85.36 398.579V393.173ZM63.28 381.653H62.96V387.059H63.28V381.653ZM60.3709 383.58C59.3106 387.114 57.2319 389.458 54.0471 390.835L56.1929 395.797C60.9014 393.761 64.0494 390.132 65.5491 385.133L60.3709 383.58ZM53.9914 390.86C50.5348 392.448 45.6881 393.333 39.28 393.333V398.739C46.0986 398.739 51.8118 397.811 56.2486 395.773L53.9914 390.86ZM39.28 393.333H19.6V398.739H39.28V393.333ZM19.6 393.333C16.3522 393.333 13.6349 393.441 11.477 393.668L12.043 399.045C13.9385 398.845 16.4478 398.739 19.6 398.739V393.333ZM11.4615 393.67C9.24242 393.916 7.05376 394.53 4.90215 395.486L7.09785 400.426C8.78624 399.676 10.4376 399.223 12.0585 399.043L11.4615 393.67ZM8.70313 397.956L8.70313 380.036H3.29687L3.29687 397.956H8.70313ZM6.89966 382.585C8.56947 381.996 10.0932 381.62 11.4773 381.436L10.7627 376.077C8.94682 376.319 7.0572 376.797 5.10034 377.487L6.89966 382.585ZM11.4773 381.436C12.8772 381.249 15.5905 381.139 19.76 381.139V375.733C15.6095 375.733 12.5628 375.837 10.7627 376.077L11.4773 381.436ZM19.76 381.139H40.24V375.733H19.76V381.139ZM40.24 381.139C45.4848 381.139 49.9025 380.301 52.7012 377.944L49.2188 373.809C47.9642 374.865 45.2352 375.733 40.24 375.733V381.139ZM52.635 377.998C55.6097 375.649 56.7031 371.802 56.7031 367.396H51.2969C51.2969 371.097 50.3637 372.903 49.285 373.755L52.635 377.998ZM56.7031 367.396V361.316H51.2969V367.396H56.7031ZM54 358.613H6V364.019H54V358.613ZM8.70313 361.316V343.716H3.29687V361.316H8.70313ZM6 346.419H118V341.013H6V346.419ZM67.2969 367.716C67.2969 371.667 68.3182 375.126 70.8674 377.525L74.5726 373.588C73.4951 372.574 72.7031 370.806 72.7031 367.716H67.2969ZM70.8086 377.468C73.3769 380.036 77.3067 380.979 81.84 380.979V375.573C77.8399 375.573 75.6898 374.703 74.6314 373.645L70.8086 377.468ZM81.84 380.979H90.48V375.573H81.84V380.979ZM90.48 380.979C94.7479 380.979 98.4574 380.215 100.998 378.123L97.5616 373.95C96.4759 374.844 94.3187 375.573 90.48 375.573V380.979ZM100.922 378.184C103.624 376.118 104.703 372.93 104.703 369.316H99.2969C99.2969 371.889 98.5631 373.182 97.638 373.889L100.922 378.184ZM104.703 369.316V361.316H99.2969V369.316H104.703ZM102 358.613H70V364.019H102V358.613ZM67.2969 361.316V367.716H72.7031V361.316H67.2969Z" fill="#E50539"/>
</g>
<g filter="url(#filter1_b_295_148)">
<path d="M-612 666.697L437 450V1615.13L-612 1614.65L-612 666.697Z" fill="url(#paint0_linear_295_148)" fill-opacity="0.7"/>
</g>
<path d="M301.345 538.464V517.713L311.744 514.933C313.333 514.508 314.645 514.522 315.68 514.977C316.714 515.43 317.485 516.202 317.992 517.29C318.499 518.379 318.754 519.665 318.754 521.146C318.754 522.627 318.462 524.088 317.878 525.456C317.294 526.827 316.47 528.008 315.407 529.001C314.344 529.995 313.085 530.686 311.629 531.075L308.297 531.966V536.605L301.345 538.464ZM308.297 525.876L309.991 525.422C310.547 525.274 310.967 524.99 311.255 524.569C311.543 524.148 311.685 523.638 311.685 523.036C311.685 521.704 311.159 521.179 310.106 521.461L308.295 521.945V525.876H308.297Z" fill="white"/>
<path d="M320.334 533.391V512.641L327.286 510.782V531.532L320.334 533.391Z" fill="white"/>
<path d="M330.012 530.793V510.043L340.411 507.263C342 506.837 343.312 506.825 344.347 507.225C345.381 507.625 346.152 508.343 346.659 509.378C347.166 510.413 347.421 511.672 347.421 513.153C347.421 514.55 347.101 515.859 346.458 517.084C345.816 518.308 345.045 519.384 344.146 520.312C344.357 520.406 344.519 520.529 344.635 520.681C344.749 520.834 344.846 520.996 344.922 521.169L347.106 526.224L339.866 528.16L338.056 524.036C337.959 523.804 337.855 523.654 337.74 523.589C337.625 523.523 337.462 523.518 337.251 523.574L336.964 523.651V528.935L330.012 530.794V530.793ZM336.964 517.559L338.658 517.106C339.788 516.804 340.352 516.116 340.352 515.042C340.352 514.441 340.223 514.046 339.965 513.857C339.706 513.668 339.309 513.647 338.773 513.789L336.962 514.273V517.559H336.964Z" fill="white"/>
<path d="M347.708 526.066L354.833 503.411L362.044 501.482L369.169 520.328L361.929 522.264L360.608 518.751L356.269 519.911L354.948 524.131L347.708 526.067V526.066ZM357.017 514.394L359.833 513.642L358.425 510.056L357.017 514.395V514.394Z" fill="white"/>
<path d="M372.587 519.416V504.273L367.876 505.532V499.926L384.251 495.547V501.153L379.539 502.413V517.556L372.587 519.415V519.416Z" fill="white"/>
<path d="M385.975 515.834V495.083L400.771 491.127V496.734L392.928 498.83V500.699L399.678 498.894V504.693L392.928 506.499V508.368L400.771 506.271V511.877L385.976 515.833L385.975 515.834Z" fill="white"/>
<path d="M307.75 563.371C306.447 563.719 305.193 563.93 303.987 564.007C302.781 564.082 301.765 563.995 300.942 563.741V557.91C301.842 558.163 302.857 558.3 303.987 558.32C305.117 558.34 306.123 558.233 307.004 557.997C307.579 557.844 308.028 557.643 308.355 557.395C308.68 557.146 308.844 556.873 308.844 556.572C308.844 556.186 308.538 555.966 307.925 555.915C307.312 555.865 306.507 555.768 305.511 555.626C304.324 555.428 303.385 555.142 302.695 554.768C302.005 554.394 301.513 553.855 301.215 553.149C300.918 552.445 300.771 551.501 300.771 550.32C300.771 546.002 303.48 543.12 308.901 541.67C309.514 541.507 310.198 541.372 310.955 541.266C311.711 541.159 312.448 541.086 313.168 541.045C313.886 541.003 314.494 541.002 314.991 541.04V546.905C313.938 546.692 313.009 546.607 312.205 546.651C311.4 546.695 310.692 546.797 310.079 546.962C309.6 547.09 309.111 547.269 308.613 547.498C308.115 547.729 307.866 548.015 307.866 548.359C307.866 548.638 308.086 548.799 308.527 548.843C308.967 548.887 309.667 548.93 310.624 548.974C312.156 549.038 313.304 549.294 314.071 549.745C314.836 550.196 315.35 550.832 315.608 551.654C315.866 552.477 315.996 553.468 315.996 554.627C315.996 556.603 315.306 558.372 313.927 559.933C312.548 561.495 310.489 562.64 307.75 563.373V563.371Z" fill="white"/>
<path d="M318.148 560.265V539.515L328.547 536.734C330.137 536.309 331.448 536.323 332.483 536.778C333.517 537.232 334.288 538.003 334.796 539.092C335.303 540.18 335.557 541.466 335.557 542.947C335.557 544.428 335.265 545.889 334.681 547.258C334.097 548.628 333.273 549.809 332.21 550.803C331.147 551.796 329.888 552.487 328.433 552.876L325.1 553.767V558.407L318.148 560.265ZM325.1 547.677L326.794 547.224C327.35 547.075 327.771 546.791 328.058 546.37C328.346 545.95 328.49 545.439 328.49 544.837C328.49 543.506 327.963 542.98 326.91 543.262L325.1 543.746V547.677Z" fill="white"/>
<path d="M346.476 553.023C344.388 553.582 342.607 553.708 341.133 553.405C339.658 553.101 338.528 552.27 337.743 550.912C336.958 549.554 336.566 547.576 336.566 544.976C336.566 542.376 336.958 540.162 337.743 538.394C338.528 536.627 339.658 535.197 341.133 534.105C342.608 533.013 344.389 532.187 346.476 531.629C348.563 531.071 350.344 530.944 351.819 531.247C353.294 531.551 354.423 532.377 355.209 533.724C355.994 535.073 356.387 537.056 356.387 539.677C356.387 542.298 355.994 544.465 355.209 546.242C354.424 548.021 353.294 549.455 351.819 550.548C350.344 551.64 348.563 552.465 346.476 553.023ZM346.476 546.418C347.492 546.146 348.215 545.647 348.645 544.92C349.075 544.192 349.291 543.076 349.291 541.573C349.291 540.07 349.075 539.07 348.645 538.572C348.213 538.075 347.49 537.963 346.476 538.235C345.461 538.506 344.738 539.005 344.308 539.733C343.877 540.461 343.662 541.576 343.662 543.079C343.662 544.582 343.877 545.583 344.308 546.08C344.739 546.577 345.461 546.69 346.476 546.419V546.418Z" fill="white"/>
<path d="M361.96 548.561V533.418L357.249 534.677V529.071L373.624 524.692V530.298L368.912 531.558V546.701L361.96 548.56V548.561Z" fill="white"/>
</g>
</g>
<defs>
<filter id="filter0_d_295_148" x="-31.6419" y="-27.1219" width="187.284" height="461.12" filterUnits="userSpaceOnUse" color-interpolation-filters="sRGB">
<feFlood flood-opacity="0" result="BackgroundImageFix"/>
<feColorMatrix in="SourceAlpha" type="matrix" values="0 0 0 0 0 0 0 0 0 0 0 0 0 0 0 0 0 0 127 0" result="hardAlpha"/>
<feOffset/>
<feGaussianBlur stdDeviation="18.0209"/>
<feComposite in2="hardAlpha" operator="out"/>
<feColorMatrix type="matrix" values="0 0 0 0 0 0 0 0 0 0 0 0 0 0 0 0 0 0 0.6 0"/>
<feBlend mode="normal" in2="BackgroundImageFix" result="effect1_dropShadow_295_148"/>
<feBlend mode="normal" in="SourceGraphic" in2="effect1_dropShadow_295_148" result="shape"/>
</filter>
<filter id="filter1_b_295_148" x="-621.782" y="440.218" width="1068.56" height="1184.69" filterUnits="userSpaceOnUse" color-interpolation-filters="sRGB">
<feFlood flood-opacity="0" result="BackgroundImageFix"/>
<feGaussianBlur in="BackgroundImageFix" stdDeviation="4.89102"/>
<feComposite in2="SourceAlpha" operator="in" result="effect1_backgroundBlur_295_148"/>
<feBlend mode="normal" in="SourceGraphic" in2="effect1_backgroundBlur_295_148" result="shape"/>
</filter>
<linearGradient id="paint0_linear_295_148" x1="961.5" y1="2685.28" x2="-635.94" y2="1424.59" gradientUnits="userSpaceOnUse">
<stop stop-color="#A704FF"/>
<stop offset="1" stop-color="#4200FF"/>
</linearGradient>
<clipPath id="clip0_295_148">
<rect width="440" height="953.674" fill="white"/>
</clipPath>
<clipPath id="clip1_295_148">
<rect width="440" height="953.674" fill="white" transform="translate(-3)"/>
</clipPath>
</defs>
</svg>
