<svg width="1925" height="1083" viewBox="0 0 1925 1083" fill="none" xmlns="http://www.w3.org/2000/svg">
<path d="M1925 29.4177H58V719.756H1089.04" stroke="#E50539" stroke-width="12"/>
<rect x="125.988" y="692.288" width="8.15003" height="30.1571" rx="4.07501" fill="#E50539"/>
<rect x="286.951" y="692.288" width="8.15003" height="30.1571" rx="4.07501" fill="#E50539"/>
<rect x="447.914" y="692.288" width="8.15003" height="30.1571" rx="4.07501" fill="#E50539"/>
<rect x="608.877" y="692.288" width="8.15003" height="30.1571" rx="4.07501" fill="#E50539"/>
<rect x="769.84" y="692.288" width="8.15003" height="30.1571" rx="4.07501" fill="#E50539"/>
<rect x="930.803" y="692.288" width="8.15003" height="30.1571" rx="4.07501" fill="#E50539"/>
<path d="M279.635 684.935L286.789 675.462L279.91 666.303H285.649L289.659 671.727L293.668 666.303H299.407L292.568 675.462L299.683 684.935H293.904L289.659 679.235L285.414 684.935H279.635ZM306.421 684.935V664.416L302.294 665.084V660.642L311.728 659.227V684.935H306.421Z" fill="white"/>
<path d="M434.486 684.935L441.64 675.462L434.761 666.303H440.5L444.51 671.727L448.519 666.303H454.258L447.418 675.462L454.533 684.935H448.755L444.51 679.235L440.264 684.935H434.486ZM457.144 684.935V682.38C457.852 680.86 458.782 679.497 459.935 678.292C461.088 677.06 462.346 675.841 463.709 674.636C464.731 673.719 465.569 672.959 466.225 672.356C466.88 671.753 467.391 671.216 467.758 670.744C468.125 670.273 468.387 669.788 468.544 669.29C468.701 668.792 468.78 668.176 468.78 667.443C468.78 665.005 467.234 663.787 464.141 663.787C463.093 663.787 462.045 663.905 460.997 664.141C459.975 664.35 458.992 664.639 458.048 665.005V660.328C459.044 659.987 460.197 659.725 461.508 659.542C462.844 659.332 464.115 659.227 465.321 659.227C468.256 659.227 470.457 659.961 471.924 661.428C473.418 662.87 474.165 664.835 474.165 667.325C474.165 669.054 473.733 670.535 472.868 671.767C472.029 672.972 470.929 674.164 469.566 675.344C468.491 676.287 467.469 677.204 466.5 678.095C465.53 678.96 464.718 679.877 464.063 680.847H474.401V684.935H457.144Z" fill="white"/>
<path d="M596.468 684.935L603.622 675.462L596.743 666.303H602.482L606.491 671.727L610.501 666.303H616.24L609.4 675.462L616.515 684.935H610.737L606.491 679.235L602.246 684.935H596.468ZM626.674 685.328C625.914 685.328 625.062 685.275 624.118 685.171C623.175 685.066 622.258 684.922 621.367 684.738C620.476 684.555 619.729 684.345 619.126 684.109V679.471C620.201 679.916 621.314 680.244 622.468 680.454C623.647 680.663 624.787 680.768 625.887 680.768C627.748 680.768 629.124 680.519 630.015 680.021C630.932 679.497 631.391 678.554 631.391 677.191C631.391 676.064 630.984 675.265 630.172 674.793C629.386 674.322 628.246 674.086 626.752 674.086H622.782L623.175 670.194H626.477C627.997 670.194 629.111 669.945 629.818 669.447C630.526 668.923 630.88 668.111 630.88 667.01C630.88 665.91 630.473 665.097 629.661 664.573C628.875 664.023 627.604 663.748 625.848 663.748C624.721 663.748 623.594 663.866 622.468 664.101C621.367 664.337 620.397 664.639 619.559 665.005V660.485C620.397 660.118 621.472 659.817 622.782 659.581C624.118 659.345 625.442 659.227 626.752 659.227C629.897 659.227 632.268 659.882 633.867 661.193C635.465 662.503 636.265 664.193 636.265 666.263C636.265 667.495 635.977 668.661 635.4 669.762C634.85 670.836 633.985 671.622 632.806 672.12C634.168 672.54 635.164 673.247 635.793 674.243C636.448 675.213 636.776 676.379 636.776 677.741C636.776 679.471 636.343 680.899 635.479 682.026C634.64 683.153 633.461 683.991 631.941 684.542C630.447 685.066 628.691 685.328 626.674 685.328Z" fill="white"/>
<path d="M758.45 684.935L765.604 675.462L758.725 666.303H764.464L768.473 671.727L772.483 666.303H778.222L771.382 675.462L778.497 684.935H772.719L768.473 679.235L764.228 684.935H758.45ZM788.577 685.328C787.817 685.328 786.978 685.275 786.061 685.171C785.17 685.092 784.292 684.961 783.427 684.778C782.589 684.594 781.855 684.371 781.226 684.109V679.51C782.143 679.903 783.218 680.218 784.449 680.454C785.707 680.663 786.834 680.768 787.83 680.768C789.612 680.768 790.935 680.48 791.8 679.903C792.691 679.327 793.137 678.344 793.137 676.955C793.137 675.724 792.835 674.819 792.233 674.243C791.656 673.666 790.49 673.378 788.734 673.378H781.108V670.391L781.776 659.62H796.832L796.439 663.708H786.297L785.943 669.29H789.756C792.822 669.29 795.05 669.958 796.439 671.295C797.827 672.631 798.522 674.584 798.522 677.152C798.522 679.641 797.683 681.633 796.006 683.127C794.355 684.594 791.879 685.328 788.577 685.328Z" fill="#C64343"/>
<path d="M920.431 684.935L927.585 675.462L920.706 666.303H926.445L930.455 671.727L934.464 666.303H940.203L933.364 675.462L940.478 684.935H934.7L930.455 679.235L926.21 684.935H920.431ZM947.217 684.935V664.416L943.09 665.084V660.642L952.524 659.227V684.935H947.217ZM967.657 685.957C964.879 685.957 962.652 685.433 960.974 684.384C959.297 683.336 958.079 681.816 957.319 679.825C956.585 677.807 956.218 675.396 956.218 672.592C956.218 669.762 956.585 667.351 957.319 665.359C958.079 663.368 959.297 661.848 960.974 660.799C962.652 659.751 964.879 659.227 967.657 659.227C970.435 659.227 972.662 659.751 974.339 660.799C976.016 661.848 977.222 663.368 977.956 665.359C978.716 667.351 979.096 669.762 979.096 672.592C979.096 675.396 978.716 677.807 977.956 679.825C977.222 681.816 976.016 683.336 974.339 684.384C972.662 685.433 970.435 685.957 967.657 685.957ZM967.657 681.397C969.937 681.397 971.509 680.637 972.374 679.117C973.265 677.597 973.71 675.422 973.71 672.592C973.71 669.762 973.265 667.587 972.374 666.067C971.509 664.547 969.937 663.787 967.657 663.787C965.377 663.787 963.791 664.547 962.9 666.067C962.036 667.587 961.603 669.762 961.603 672.592C961.603 675.422 962.036 677.597 962.9 679.117C963.791 680.637 965.377 681.397 967.657 681.397Z" fill="#C64343"/>
<g filter="url(#filter0_d_239_2)">
<mask id="path-13-outside-1_239_2" maskUnits="userSpaceOnUse" x="33" y="730.418" width="1066" height="320" fill="black">
<rect fill="white" x="33" y="730.418" width="1066" height="320"/>
<path d="M85.8451 737.722H150.702L200.324 1042.42H152.443L143.737 981.914V982.785H89.3274L80.6218 1042.42H36.2233L85.8451 737.722ZM138.079 941.433L116.75 790.826H115.879L94.986 941.433H138.079ZM198.603 737.722H246.919L278.259 974.079H279.129L310.469 737.722H354.433L308.293 1042.42H244.742L198.603 737.722ZM377.431 737.722H425.312V1042.42H377.431V737.722ZM498.17 737.722H563.026L612.648 1042.42H564.768L556.062 981.914V982.785H501.652L492.947 1042.42H448.548L498.17 737.722ZM550.403 941.433L529.075 790.826H528.204L507.311 941.433H550.403ZM653.333 781.25H603.276V737.722H751.271V781.25H701.214V1042.42H653.333V781.25ZM841.962 1046.77C818.457 1046.77 800.465 1040.1 787.987 1026.75C775.509 1013.4 769.27 994.537 769.27 970.161V809.979C769.27 785.603 775.509 766.741 787.987 753.392C800.465 740.044 818.457 733.37 841.962 733.37C865.467 733.37 883.459 740.044 895.937 753.392C908.415 766.741 914.654 785.603 914.654 809.979V970.161C914.654 994.537 908.415 1013.4 895.937 1026.75C883.459 1040.1 865.467 1046.77 841.962 1046.77ZM841.962 1003.24C858.503 1003.24 866.773 993.231 866.773 973.208V806.932C866.773 786.909 858.503 776.898 841.962 776.898C825.421 776.898 817.151 786.909 817.151 806.932V973.208C817.151 993.231 825.421 1003.24 841.962 1003.24ZM947.034 737.722H1017.98C1042.65 737.722 1060.64 743.526 1071.96 755.134C1083.28 766.451 1088.94 784.007 1088.94 807.802V826.519C1088.94 858.15 1078.49 878.172 1057.6 886.588V887.458C1069.2 890.941 1077.33 898.05 1081.97 908.787C1086.9 919.524 1089.37 933.888 1089.37 951.88V1005.42C1089.37 1014.12 1089.66 1021.23 1090.24 1026.75C1090.82 1031.97 1092.27 1037.19 1094.59 1042.42H1045.84C1044.1 1037.48 1042.94 1032.84 1042.36 1028.49C1041.78 1024.14 1041.49 1016.3 1041.49 1004.98V949.268C1041.49 935.339 1039.17 925.618 1034.53 920.104C1030.17 914.591 1022.48 911.834 1011.46 911.834H994.915V1042.42H947.034V737.722ZM1012.33 868.306C1021.9 868.306 1029.01 865.84 1033.65 860.906C1038.59 855.973 1041.05 847.703 1041.05 836.095V812.59C1041.05 801.563 1039.02 793.583 1034.96 788.65C1031.19 783.717 1025.09 781.25 1016.68 781.25H994.915V868.306H1012.33Z"/>
</mask>
<path d="M85.8451 737.722V735.019H83.5466L83.1772 737.288L85.8451 737.722ZM150.702 737.722L153.37 737.288L153 735.019H150.702V737.722ZM200.324 1042.42V1045.12H203.502L202.992 1041.98L200.324 1042.42ZM152.443 1042.42L149.767 1042.8L150.101 1045.12H152.443V1042.42ZM143.737 981.914L146.413 981.529L141.034 981.914H143.737ZM143.737 982.785V985.488H146.44V982.785H143.737ZM89.3274 982.785V980.081H86.9902L86.6526 982.394L89.3274 982.785ZM80.6218 1042.42V1045.12H82.959L83.2966 1042.81L80.6218 1042.42ZM36.2233 1042.42L33.5554 1041.98L33.0444 1045.12H36.2233V1042.42ZM138.079 941.433V944.136H141.192L140.755 941.054L138.079 941.433ZM116.75 790.826L119.426 790.447L119.097 788.123H116.75V790.826ZM115.879 790.826V788.123H113.525L113.202 790.455L115.879 790.826ZM94.986 941.433L92.3085 941.062L91.882 944.136H94.986V941.433ZM85.8451 740.426H150.702V735.019H85.8451V740.426ZM148.034 738.157L197.656 1042.85L202.992 1041.98L153.37 737.288L148.034 738.157ZM200.324 1039.71H152.443V1045.12H200.324V1039.71ZM155.118 1042.03L146.413 981.529L141.062 982.299L149.767 1042.8L155.118 1042.03ZM141.034 981.914V982.785H146.44V981.914H141.034ZM143.737 980.081H89.3274V985.488H143.737V980.081ZM86.6526 982.394L77.947 1042.03L83.2966 1042.81L92.0022 983.175L86.6526 982.394ZM80.6218 1039.71H36.2233V1045.12H80.6218V1039.71ZM38.8913 1042.85L88.5131 738.157L83.1772 737.288L33.5554 1041.98L38.8913 1042.85ZM140.755 941.054L119.426 790.447L114.074 791.206L135.402 941.812L140.755 941.054ZM116.75 788.123H115.879V793.53H116.75V788.123ZM113.202 790.455L92.3085 941.062L97.6635 941.804L118.557 791.198L113.202 790.455ZM94.986 944.136H138.079V938.73H94.986V944.136ZM198.603 737.722V735.019H195.46L195.93 738.127L198.603 737.722ZM246.919 737.722L249.598 737.367L249.287 735.019H246.919V737.722ZM278.259 974.079L275.579 974.434L275.89 976.782H278.259V974.079ZM279.129 974.079V976.782H281.498L281.809 974.434L279.129 974.079ZM310.469 737.722V735.019H308.101L307.79 737.367L310.469 737.722ZM354.433 737.722L357.105 738.127L357.576 735.019H354.433V737.722ZM308.293 1042.42V1045.12H310.618L310.966 1042.82L308.293 1042.42ZM244.742 1042.42L242.07 1042.82L242.418 1045.12H244.742V1042.42ZM198.603 740.426H246.919V735.019H198.603V740.426ZM244.239 738.078L275.579 974.434L280.939 973.724L249.598 737.367L244.239 738.078ZM278.259 976.782H279.129V971.376H278.259V976.782ZM281.809 974.434L313.149 738.078L307.79 737.367L276.45 973.724L281.809 974.434ZM310.469 740.426H354.433V735.019H310.469V740.426ZM351.76 737.318L305.62 1042.01L310.966 1042.82L357.105 738.127L351.76 737.318ZM308.293 1039.71H244.742V1045.12H308.293V1039.71ZM247.415 1042.01L201.275 737.318L195.93 738.127L242.07 1042.82L247.415 1042.01ZM377.431 737.722V735.019H374.728V737.722H377.431ZM425.312 737.722H428.015V735.019H425.312V737.722ZM425.312 1042.42V1045.12H428.015V1042.42H425.312ZM377.431 1042.42H374.728V1045.12H377.431V1042.42ZM377.431 740.426H425.312V735.019H377.431V740.426ZM422.609 737.722V1042.42H428.015V737.722H422.609ZM425.312 1039.71H377.431V1045.12H425.312V1039.71ZM380.134 1042.42V737.722H374.728V1042.42H380.134ZM498.17 737.722V735.019H495.871L495.502 737.288L498.17 737.722ZM563.026 737.722L565.694 737.288L565.325 735.019H563.026V737.722ZM612.648 1042.42V1045.12H615.827L615.316 1041.98L612.648 1042.42ZM564.768 1042.42L562.092 1042.8L562.426 1045.12H564.768V1042.42ZM556.062 981.914L558.738 981.529L553.359 981.914H556.062ZM556.062 982.785V985.488H558.765V982.785H556.062ZM501.652 982.785V980.081H499.315L498.977 982.394L501.652 982.785ZM492.947 1042.42V1045.12H495.284L495.621 1042.81L492.947 1042.42ZM448.548 1042.42L445.88 1041.98L445.369 1045.12H448.548V1042.42ZM550.403 941.433V944.136H553.516L553.08 941.054L550.403 941.433ZM529.075 790.826L531.751 790.447L531.422 788.123H529.075V790.826ZM528.204 790.826V788.123H525.85L525.527 790.455L528.204 790.826ZM507.311 941.433L504.633 941.062L504.207 944.136H507.311V941.433ZM498.17 740.426H563.026V735.019H498.17V740.426ZM560.358 738.157L609.98 1042.85L615.316 1041.98L565.694 737.288L560.358 738.157ZM612.648 1039.71H564.768V1045.12H612.648V1039.71ZM567.443 1042.03L558.738 981.529L553.386 982.299L562.092 1042.8L567.443 1042.03ZM553.359 981.914V982.785H558.765V981.914H553.359ZM556.062 980.081H501.652V985.488H556.062V980.081ZM498.977 982.394L490.272 1042.03L495.621 1042.81L504.327 983.175L498.977 982.394ZM492.947 1039.71H448.548V1045.12H492.947V1039.71ZM451.216 1042.85L500.838 738.157L495.502 737.288L445.88 1041.98L451.216 1042.85ZM553.08 941.054L531.751 790.447L526.398 791.206L547.727 941.812L553.08 941.054ZM529.075 788.123H528.204V793.53H529.075V788.123ZM525.527 790.455L504.633 941.062L509.988 941.804L530.882 791.198L525.527 790.455ZM507.311 944.136H550.403V938.73H507.311V944.136ZM653.333 781.25H656.036V778.547H653.333V781.25ZM603.276 781.25H600.573V783.953H603.276V781.25ZM603.276 737.722V735.019H600.573V737.722H603.276ZM751.271 737.722H753.974V735.019H751.271V737.722ZM751.271 781.25V783.953H753.974V781.25H751.271ZM701.214 781.25V778.547H698.511V781.25H701.214ZM701.214 1042.42V1045.12H703.917V1042.42H701.214ZM653.333 1042.42H650.63V1045.12H653.333V1042.42ZM653.333 778.547H603.276V783.953H653.333V778.547ZM605.979 781.25V737.722H600.573V781.25H605.979ZM603.276 740.426H751.271V735.019H603.276V740.426ZM748.568 737.722V781.25H753.974V737.722H748.568ZM751.271 778.547H701.214V783.953H751.271V778.547ZM698.511 781.25V1042.42H703.917V781.25H698.511ZM701.214 1039.71H653.333V1045.12H701.214V1039.71ZM656.036 1042.42V781.25H650.63V1042.42H656.036ZM787.987 1026.75L789.962 1024.9L789.962 1024.9L787.987 1026.75ZM787.987 753.392L789.962 755.238L789.962 755.238L787.987 753.392ZM895.937 753.392L893.962 755.238L893.962 755.238L895.937 753.392ZM895.937 1026.75L893.962 1024.9L893.962 1024.9L895.937 1026.75ZM841.962 1044.07C818.979 1044.07 801.792 1037.56 789.962 1024.9L786.013 1028.59C799.138 1042.64 817.935 1049.47 841.962 1049.47V1044.07ZM789.962 1024.9C778.091 1012.2 771.974 994.086 771.974 970.161H766.567C766.567 994.988 772.928 1014.6 786.013 1028.59L789.962 1024.9ZM771.974 970.161V809.979H766.567V970.161H771.974ZM771.974 809.979C771.974 786.054 778.091 767.938 789.962 755.238L786.013 751.547C772.928 765.544 766.567 785.152 766.567 809.979H771.974ZM789.962 755.238C801.792 742.583 818.979 736.073 841.962 736.073V730.667C817.935 730.667 799.138 737.505 786.013 751.547L789.962 755.238ZM841.962 736.073C864.945 736.073 882.132 742.583 893.962 755.238L897.911 751.547C884.786 737.505 865.989 730.667 841.962 730.667V736.073ZM893.962 755.238C905.833 767.938 911.95 786.054 911.95 809.979H917.357C917.357 785.152 910.996 765.544 897.911 751.547L893.962 755.238ZM911.95 809.979V970.161H917.357V809.979H911.95ZM911.95 970.161C911.95 994.086 905.833 1012.2 893.962 1024.9L897.911 1028.59C910.996 1014.6 917.357 994.988 917.357 970.161H911.95ZM893.962 1024.9C882.132 1037.56 864.945 1044.07 841.962 1044.07V1049.47C865.989 1049.47 884.786 1042.64 897.911 1028.59L893.962 1024.9ZM841.962 1005.95C850.8 1005.95 857.871 1003.25 862.654 997.456C867.356 991.764 869.476 983.524 869.476 973.208H864.07C864.07 982.915 862.055 989.693 858.486 994.012C855 998.233 849.665 1000.54 841.962 1000.54V1005.95ZM869.476 973.208V806.932H864.07V973.208H869.476ZM869.476 806.932C869.476 796.616 867.356 788.376 862.654 782.685C857.871 776.894 850.8 774.194 841.962 774.194V779.601C849.665 779.601 855 781.907 858.486 786.128C862.055 790.447 864.07 797.225 864.07 806.932H869.476ZM841.962 774.194C833.125 774.194 826.054 776.894 821.27 782.685C816.568 788.376 814.448 796.616 814.448 806.932H819.854C819.854 797.225 821.87 790.447 825.438 786.128C828.924 781.907 834.259 779.601 841.962 779.601V774.194ZM814.448 806.932V973.208H819.854V806.932H814.448ZM814.448 973.208C814.448 983.524 816.568 991.764 821.27 997.456C826.054 1003.25 833.125 1005.95 841.962 1005.95V1000.54C834.259 1000.54 828.924 998.233 825.438 994.012C821.87 989.693 819.854 982.915 819.854 973.208H814.448ZM947.034 737.722V735.019H944.331V737.722H947.034ZM1071.96 755.134L1070.02 757.021L1070.04 757.033L1070.05 757.045L1071.96 755.134ZM1057.6 886.588L1056.59 884.08L1054.89 884.762V886.588H1057.6ZM1057.6 887.458H1054.89V889.47L1056.82 890.048L1057.6 887.458ZM1081.97 908.787L1079.49 909.86L1079.5 909.888L1079.51 909.916L1081.97 908.787ZM1090.24 1026.75L1087.55 1027.03L1087.55 1027.04L1087.55 1027.05L1090.24 1026.75ZM1094.59 1042.42V1045.12H1098.75L1097.06 1041.32L1094.59 1042.42ZM1045.84 1042.42L1043.29 1043.32L1043.93 1045.12H1045.84V1042.42ZM1034.53 920.104L1032.4 921.779L1032.43 921.813L1032.46 921.846L1034.53 920.104ZM994.915 911.834V909.131H992.212V911.834H994.915ZM994.915 1042.42V1045.12H997.618V1042.42H994.915ZM947.034 1042.42H944.331V1045.12H947.034V1042.42ZM1033.65 860.906L1031.74 858.995L1031.71 859.024L1031.69 859.054L1033.65 860.906ZM1034.96 788.65L1032.81 790.292L1032.84 790.331L1032.87 790.369L1034.96 788.65ZM994.915 781.25V778.547H992.212V781.25H994.915ZM994.915 868.306H992.212V871.009H994.915V868.306ZM947.034 740.426H1017.98V735.019H947.034V740.426ZM1017.98 740.426C1042.3 740.426 1059.43 746.153 1070.02 757.021L1073.89 753.247C1061.86 740.899 1043 735.019 1017.98 735.019V740.426ZM1070.05 757.045C1080.66 767.654 1086.23 784.378 1086.23 807.802H1091.64C1091.64 783.636 1085.9 765.248 1073.87 753.222L1070.05 757.045ZM1086.23 807.802V826.519H1091.64V807.802H1086.23ZM1086.23 826.519C1086.23 842.063 1083.66 854.507 1078.7 864.009C1073.78 873.451 1066.43 880.114 1056.59 884.08L1058.61 889.095C1069.65 884.646 1077.98 877.09 1083.5 866.51C1088.99 855.989 1091.64 842.606 1091.64 826.519H1086.23ZM1054.89 886.588V887.458H1060.3V886.588H1054.89ZM1056.82 890.048C1067.69 893.31 1075.18 899.885 1079.49 909.86L1084.45 907.714C1079.48 896.215 1070.71 888.571 1058.37 884.869L1056.82 890.048ZM1079.51 909.916C1084.22 920.162 1086.67 934.093 1086.67 951.88H1092.07C1092.07 933.683 1089.59 918.885 1084.43 907.659L1079.51 909.916ZM1086.67 951.88V1005.42H1092.07V951.88H1086.67ZM1086.67 1005.42C1086.67 1014.17 1086.96 1021.39 1087.55 1027.03L1092.93 1026.46C1092.36 1021.08 1092.07 1014.08 1092.07 1005.42H1086.67ZM1087.55 1027.05C1088.17 1032.57 1089.7 1038.06 1092.12 1043.52L1097.06 1041.32C1094.85 1036.33 1093.47 1031.37 1092.93 1026.45L1087.55 1027.05ZM1094.59 1039.71H1045.84V1045.12H1094.59V1039.71ZM1048.39 1041.52C1046.7 1036.73 1045.59 1032.27 1045.04 1028.13L1039.68 1028.85C1040.29 1033.41 1041.5 1038.24 1043.29 1043.32L1048.39 1041.52ZM1045.04 1028.13C1044.49 1023.98 1044.19 1016.31 1044.19 1004.98H1038.79C1038.79 1016.29 1039.07 1024.29 1039.68 1028.85L1045.04 1028.13ZM1044.19 1004.98V949.268H1038.79V1004.98H1044.19ZM1044.19 949.268C1044.19 935.214 1041.89 924.649 1036.59 918.363L1032.46 921.846C1036.45 926.587 1038.79 935.464 1038.79 949.268H1044.19ZM1036.65 918.429C1031.55 911.968 1022.83 909.131 1011.46 909.131V914.537C1022.13 914.537 1028.8 917.214 1032.4 921.779L1036.65 918.429ZM1011.46 909.131H994.915V914.537H1011.46V909.131ZM992.212 911.834V1042.42H997.618V911.834H992.212ZM994.915 1039.71H947.034V1045.12H994.915V1039.71ZM949.737 1042.42V737.722H944.331V1042.42H949.737ZM1012.33 871.009C1022.33 871.009 1030.29 868.428 1035.62 862.759L1031.69 859.054C1027.74 863.251 1021.47 865.603 1012.33 865.603V871.009ZM1035.57 862.818C1041.25 857.13 1043.76 847.97 1043.76 836.095H1038.35C1038.35 847.436 1035.92 854.817 1031.74 858.995L1035.57 862.818ZM1043.76 836.095V812.59H1038.35V836.095H1043.76ZM1043.76 812.59C1043.76 801.349 1041.71 792.593 1037.05 786.932L1032.87 790.369C1036.34 794.574 1038.35 801.778 1038.35 812.59H1043.76ZM1037.11 787.008C1032.66 781.187 1025.62 778.547 1016.68 778.547V783.953C1024.57 783.953 1029.72 786.247 1032.81 790.292L1037.11 787.008ZM1016.68 778.547H994.915V783.953H1016.68V778.547ZM992.212 781.25V868.306H997.618V781.25H992.212ZM994.915 871.009H1012.33V865.603H994.915V871.009Z" fill="#E50539" mask="url(#path-13-outside-1_239_2)"/>
</g>
<defs>
<filter id="filter0_d_239_2" x="0.181358" y="697.328" width="1130.45" height="385.484" filterUnits="userSpaceOnUse" color-interpolation-filters="sRGB">
<feFlood flood-opacity="0" result="BackgroundImageFix"/>
<feColorMatrix in="SourceAlpha" type="matrix" values="0 0 0 0 0 0 0 0 0 0 0 0 0 0 0 0 0 0 127 0" result="hardAlpha"/>
<feOffset/>
<feGaussianBlur stdDeviation="18.0209"/>
<feComposite in2="hardAlpha" operator="out"/>
<feColorMatrix type="matrix" values="0 0 0 0 0 0 0 0 0 0 0 0 0 0 0 0 0 0 0.6 0"/>
<feBlend mode="normal" in2="BackgroundImageFix" result="effect1_dropShadow_239_2"/>
<feBlend mode="normal" in="SourceGraphic" in2="effect1_dropShadow_239_2" result="shape"/>
</filter>
</defs>
</svg>
