<svg width="458" height="612" viewBox="0 0 458 612" fill="none" xmlns="http://www.w3.org/2000/svg">
<path d="M18.1694 487.226V607.987L455 506.871V21.5161H145.983" stroke="#E50539" stroke-width="6" stroke-linecap="round"/>
<rect x="53.2798" y="571.007" width="7.22888" height="30.0458" rx="3.61444" fill="#E50539"/>
<rect x="137.893" y="557.14" width="6.47157" height="25.4234" rx="3.23579" fill="#E50539"/>
<rect x="222.022" y="535.184" width="6.47157" height="25.4234" rx="3.23579" fill="#E50539"/>
<rect x="306.153" y="516.693" width="6.47157" height="25.4234" rx="3.23579" fill="#E50539"/>
<rect x="390.283" y="498.205" width="6.47157" height="25.4234" rx="3.23579" fill="#E50539"/>
<g filter="url(#filter0_d_382_447)">
<path d="M128.171 39.707H130.874V37.4085L128.605 37.039L128.171 39.707ZM128.171 66.527L128.605 69.195L130.874 68.8255V66.527H128.171ZM2.1709 87.047H-0.532236L-0.532236 90.226L2.6054 89.715L2.1709 87.047ZM2.1709 67.247L1.78592 64.5714L-0.532236 64.9049V67.247H2.1709ZM27.1909 63.647L27.5759 66.3226L27.1909 60.9438V63.647ZM26.8309 63.647H24.1278V66.3501H26.8309V63.647ZM26.8309 41.147H29.534V38.8098L27.2214 38.4722L26.8309 41.147ZM2.1709 37.547H-0.532236V39.8841L1.78042 40.2218L2.1709 37.547ZM2.1709 19.187L2.6054 16.519L-0.532236 16.008V19.187H2.1709ZM43.9309 61.307H41.2278V64.4199L44.3099 63.9834L43.9309 61.307ZM106.211 52.487L106.59 55.1634L108.914 54.8343V52.487H106.211ZM106.211 52.127H108.914V49.773L106.582 49.4495L106.211 52.127ZM43.9309 43.487L44.3023 40.8095L41.2278 40.383V43.487H43.9309ZM125.468 39.707V66.527H130.874V39.707H125.468ZM127.736 63.859L1.7364 84.379L2.6054 89.715L128.605 69.195L127.736 63.859ZM4.87403 87.047V67.247H-0.532236V87.047H4.87403ZM2.55587 69.9226L27.5759 66.3226L26.8059 60.9714L1.78592 64.5714L2.55587 69.9226ZM27.1909 60.9438H26.8309V66.3501H27.1909V60.9438ZM29.534 63.647V41.147H24.1278V63.647H29.534ZM27.2214 38.4722L2.56138 34.8722L1.78042 40.2218L26.4404 43.8218L27.2214 38.4722ZM4.87403 37.547V19.187H-0.532236V37.547H4.87403ZM1.7364 21.855L127.736 42.375L128.605 37.039L2.6054 16.519L1.7364 21.855ZM44.3099 63.9834L106.59 55.1634L105.832 49.8106L43.5519 58.6306L44.3099 63.9834ZM108.914 52.487V52.127H103.508V52.487H108.914ZM106.582 49.4495L44.3023 40.8095L43.5595 46.1645L105.839 54.8045L106.582 49.4495ZM41.2278 43.487V61.307H46.634V43.487H41.2278ZM128.171 86.3354H130.874V83.1921L127.766 83.6628L128.171 86.3354ZM128.171 106.315L128.526 108.995L130.874 108.684V106.315H128.171ZM30.4309 119.275L30.0756 116.596L27.7278 116.907V119.275H30.4309ZM30.4309 119.635H27.7278V122.004L30.0756 122.315L30.4309 119.635ZM128.171 132.595H130.874V130.227L128.526 129.916L128.171 132.595ZM128.171 150.775L127.766 153.448L130.874 153.919V150.775H128.171ZM2.1709 131.695H-0.532236V134.02L1.76618 134.368L2.1709 131.695ZM2.1709 105.415L1.76618 102.743L-0.532236 103.091V105.415H2.1709ZM125.468 86.3354L125.468 106.315H130.874V86.3354H125.468ZM127.816 103.636L30.0756 116.596L30.7862 121.955L128.526 108.995L127.816 103.636ZM27.7278 119.275V119.635H33.134V119.275H27.7278ZM30.0756 122.315L127.816 135.275L128.526 129.916L30.7862 116.956L30.0756 122.315ZM125.468 132.595V150.775H130.874V132.595H125.468ZM128.576 148.103L2.57562 129.023L1.76618 134.368L127.766 153.448L128.576 148.103ZM4.87403 131.695V105.415H-0.532236V131.695H4.87403ZM2.57562 108.088L128.576 89.0081L127.766 83.6628L1.76618 102.743L2.57562 108.088ZM128.171 160.286H130.874V157.583H128.171V160.286ZM128.171 180.086L128.171 182.789H130.874V180.086H128.171ZM2.1709 180.086H-0.532236V182.789H2.1709V180.086ZM2.1709 160.286V157.583H-0.532236V160.286H2.1709ZM125.468 160.286V180.086H130.874V160.286H125.468ZM128.171 177.383H2.1709V182.789H128.171L128.171 177.383ZM4.87403 180.086V160.286H-0.532236V180.086H4.87403ZM2.1709 162.989H128.171V157.583H2.1709V162.989ZM128.171 210.215H130.874V207.916L128.605 207.547L128.171 210.215ZM128.171 237.035L128.605 239.703L130.874 239.333V237.035H128.171ZM2.1709 257.555H-0.532236V260.734L2.6054 260.223L2.1709 257.555ZM2.1709 237.755L1.78592 235.079L-0.532236 235.413V237.755H2.1709ZM27.1909 234.155L27.5759 236.83L27.1909 231.452V234.155ZM26.8309 234.155H24.1278V236.858H26.8309V234.155ZM26.8309 211.655H29.534V209.318L27.2214 208.98L26.8309 211.655ZM2.1709 208.055H-0.532236V210.392L1.78042 210.73L2.1709 208.055ZM2.1709 189.695L2.6054 187.027L-0.532236 186.516V189.695H2.1709ZM43.9309 231.815H41.2278V234.928L44.3099 234.491L43.9309 231.815ZM106.211 222.995L106.59 225.671L108.914 225.342V222.995H106.211ZM106.211 222.635H108.914V220.281L106.582 219.957L106.211 222.635ZM43.9309 213.995L44.3023 211.317L41.2278 210.891V213.995H43.9309ZM125.468 210.215V237.035H130.874V210.215H125.468ZM127.736 234.367L1.7364 254.887L2.6054 260.223L128.605 239.703L127.736 234.367ZM4.87403 257.555V237.755H-0.532236V257.555H4.87403ZM2.55587 240.43L27.5759 236.83L26.8059 231.479L1.78592 235.079L2.55587 240.43ZM27.1909 231.452H26.8309V236.858H27.1909V231.452ZM29.534 234.155V211.655H24.1278V234.155H29.534ZM27.2214 208.98L2.56138 205.38L1.78042 210.73L26.4404 214.33L27.2214 208.98ZM4.87403 208.055V189.695H-0.532236V208.055H4.87403ZM1.7364 192.363L127.736 212.883L128.605 207.547L2.6054 187.027L1.7364 192.363ZM44.3099 234.491L106.59 225.671L105.832 220.318L43.5519 229.138L44.3099 234.491ZM108.914 222.995V222.635H103.508V222.995H108.914ZM106.582 219.957L44.3023 211.317L43.5595 216.672L105.839 225.312L106.582 219.957ZM41.2278 213.995V231.815H46.634V213.995H41.2278ZM110.171 274.379V277.082H112.874V274.379H110.171ZM110.171 253.679V250.976H107.468V253.679H110.171ZM128.171 253.679H130.874V250.976H128.171V253.679ZM128.171 314.879V317.582H130.874V314.879H128.171ZM110.171 314.879H107.468V317.582H110.171V314.879ZM110.171 294.179H112.874V291.476H110.171V294.179ZM2.1709 294.179H-0.532236V296.882H2.1709V294.179ZM2.1709 274.379V271.676H-0.532236V274.379H2.1709ZM112.874 274.379L112.874 253.679H107.468V274.379H112.874ZM110.171 256.382H128.171V250.976H110.171L110.171 256.382ZM125.468 253.679L125.468 314.879H130.874V253.679H125.468ZM128.171 312.176H110.171V317.582H128.171V312.176ZM112.874 314.879V294.179H107.468V314.879H112.874ZM110.171 291.476H2.1709V296.882H110.171V291.476ZM4.87403 294.179V274.379H-0.532236V294.179H4.87403ZM2.1709 277.082H110.171V271.676H2.1709V277.082ZM8.6509 330.062L10.4968 332.037L10.4968 332.037L8.6509 330.062ZM121.691 330.062L119.845 332.037L119.845 332.037L121.691 330.062ZM121.691 374.702L119.845 372.728L119.845 372.728L121.691 374.702ZM8.6509 374.702L10.4968 372.728L10.4968 372.728L8.6509 374.702ZM3.07403 352.382C3.07403 343.184 5.66972 336.549 10.4968 332.037L6.80497 328.088C0.592074 333.895 -2.33224 342.141 -2.33224 352.382H3.07403ZM10.4968 332.037C15.3679 327.484 22.4222 325.026 32.0509 325.026V319.619C21.5196 319.619 12.9739 322.321 6.80497 328.088L10.4968 332.037ZM32.0509 325.026H98.2909V319.619H32.0509V325.026ZM98.2909 325.026C107.92 325.026 114.974 327.484 119.845 332.037L123.537 328.088C117.368 322.321 108.822 319.619 98.2909 319.619V325.026ZM119.845 332.037C124.672 336.549 127.268 343.184 127.268 352.382H132.674C132.674 342.141 129.75 333.895 123.537 328.088L119.845 332.037ZM127.268 352.382C127.268 361.581 124.672 368.215 119.845 372.728L123.537 376.677C129.75 370.869 132.674 362.624 132.674 352.382H127.268ZM119.845 372.728C114.974 377.281 107.92 379.739 98.2909 379.739V385.146C108.822 385.146 117.368 382.444 123.537 376.677L119.845 372.728ZM98.2909 379.739H32.0509V385.146H98.2909V379.739ZM32.0509 379.739C22.4222 379.739 15.3679 377.281 10.4968 372.728L6.80497 376.677C12.9739 382.444 21.5196 385.146 32.0509 385.146V379.739ZM10.4968 372.728C5.66972 368.215 3.07403 361.581 3.07403 352.382H-2.33224C-2.33224 362.624 0.592074 370.869 6.80497 376.677L10.4968 372.728ZM15.6678 352.382C15.6678 356.37 16.8993 359.803 19.7543 362.161C22.5105 364.438 26.3465 365.346 30.7909 365.346V359.939C26.9553 359.939 24.5813 359.137 23.1975 357.993C21.9125 356.932 21.074 355.235 21.074 352.382H15.6678ZM30.7909 365.346H99.5509V359.939H30.7909V365.346ZM99.5509 365.346C103.995 365.346 107.831 364.438 110.587 362.161C113.443 359.803 114.674 356.37 114.674 352.382H109.268C109.268 355.235 108.429 356.932 107.144 357.993C105.76 359.137 103.386 359.939 99.5509 359.939V365.346ZM114.674 352.382C114.674 348.395 113.443 344.962 110.587 342.603C107.831 340.327 103.995 339.419 99.5509 339.419V344.826C103.386 344.826 105.76 345.628 107.144 346.771C108.429 347.833 109.268 349.53 109.268 352.382H114.674ZM99.5509 339.419H30.7909V344.826H99.5509V339.419ZM30.7909 339.419C26.3465 339.419 22.5105 340.327 19.7543 342.603C16.8993 344.962 15.6678 348.395 15.6678 352.382H21.074C21.074 349.53 21.9125 347.833 23.1975 346.771C24.5813 345.628 26.9553 344.826 30.7909 344.826V339.419ZM128.171 395.833H130.874V393.13H128.171V395.833ZM120.971 447.493L119.084 445.557L119.072 445.569L119.059 445.581L120.971 447.493ZM66.6109 441.553L69.1183 440.543L68.4363 438.85H66.6109V441.553ZM66.2509 441.553V438.85H64.2397L63.6618 440.776L66.2509 441.553ZM57.4309 451.633L56.358 449.152L56.33 449.164L56.3023 449.176L57.4309 451.633ZM8.6509 455.053L8.36793 452.364L8.36015 452.365L8.35239 452.366L8.6509 455.053ZM2.1709 456.853H-0.532236V461.012L3.26875 459.323L2.1709 456.853ZM2.1709 436.693L1.27124 434.144L-0.532236 434.78V436.693H2.1709ZM52.7509 432.013L51.0759 429.891L51.0424 429.918L51.0097 429.945L52.7509 432.013ZM56.1709 415.633H58.874V412.93H56.1709V415.633ZM2.1709 415.633H-0.532236V418.336H2.1709V415.633ZM2.1709 395.833V393.13H-0.532236V395.833H2.1709ZM77.2309 431.653L79.1423 429.741L79.1134 429.712L79.0835 429.684L77.2309 431.653ZM107.111 432.193L105.469 430.046L105.43 430.075L105.392 430.106L107.111 432.193ZM110.171 415.633H112.874V412.93H110.171V415.633ZM74.1709 415.633V412.93H71.4678V415.633H74.1709ZM125.468 395.833V425.173H130.874V395.833H125.468ZM125.468 425.173C125.468 435.019 123.144 441.599 119.084 445.557L122.858 449.428C128.398 444.027 130.874 435.727 130.874 425.173H125.468ZM119.059 445.581C115.088 449.553 108.66 451.81 99.1909 451.81V457.216C109.402 457.216 117.494 454.792 122.882 449.404L119.059 445.581ZM99.1909 451.81H91.4509V457.216H99.1909V451.81ZM91.4509 451.81C85.182 451.81 80.312 450.77 76.6813 448.876C73.1104 447.013 70.6171 444.264 69.1183 440.543L64.1035 442.563C66.0847 447.482 69.4714 451.212 74.1805 453.669C78.8298 456.095 84.6398 457.216 91.4509 457.216V451.81ZM66.6109 438.85H66.2509V444.256H66.6109V438.85ZM63.6618 440.776C62.4415 444.844 60.0361 447.561 56.358 449.152L58.5038 454.114C63.7057 451.864 67.1803 447.862 68.84 442.33L63.6618 440.776ZM56.3023 449.176C52.3524 450.991 46.8456 451.99 39.6109 451.99V457.396C47.2562 457.396 53.6294 456.354 58.5595 454.089L56.3023 449.176ZM39.6109 451.99H17.4709V457.396H39.6109V451.99ZM17.4709 451.99C13.8231 451.99 10.7791 452.111 8.36793 452.364L8.93387 457.741C11.0827 457.515 13.9187 457.396 17.4709 457.396V451.99ZM8.35239 452.366C5.89332 452.639 3.46466 453.32 1.07305 454.383L3.26875 459.323C5.19714 458.466 7.08848 457.946 8.94941 457.739L8.35239 452.366ZM4.87403 456.853L4.87403 436.693H-0.532236L-0.532236 456.853H4.87403ZM3.07055 439.242C4.96703 438.572 6.70408 438.143 8.28816 437.932L7.57364 432.573C5.55772 432.842 3.45477 433.373 1.27124 434.144L3.07055 439.242ZM8.28816 437.932C9.88808 437.719 12.9614 437.596 17.6509 437.596V432.19C12.9804 432.19 9.57372 432.307 7.57364 432.573L8.28816 437.932ZM17.6509 437.596H40.6909V432.19H17.6509V437.596ZM40.6909 437.596C46.5757 437.596 51.44 436.651 54.4921 434.08L51.0097 429.945C49.5018 431.215 46.3261 432.19 40.6909 432.19V437.596ZM54.4259 434.134C57.6539 431.586 58.874 427.385 58.874 422.473H53.4678C53.4678 426.681 52.4079 428.84 51.0759 429.891L54.4259 434.134ZM58.874 422.473V415.633H53.4678V422.473H58.874ZM56.1709 412.93H2.1709V418.336H56.1709V412.93ZM4.87403 415.633V395.833H-0.532236V415.633H4.87403ZM2.1709 398.536H128.171V393.13H2.1709V398.536ZM71.4678 422.833C71.4678 427.223 72.6025 431.009 75.3783 433.621L79.0835 429.684C77.7793 428.457 76.874 426.362 76.874 422.833H71.4678ZM75.3195 433.564C78.1145 436.359 82.4243 437.416 87.4909 437.416V432.01C82.9575 432.01 80.4273 431.026 79.1423 429.741L75.3195 433.564ZM87.4909 437.416H97.2109V432.01H87.4909V437.416ZM97.2109 437.416C101.986 437.416 106.062 436.559 108.829 434.279L105.392 430.106C104.08 431.187 101.556 432.01 97.2109 432.01V437.416ZM108.753 434.34C111.681 432.101 112.874 428.634 112.874 424.633H107.468C107.468 427.592 106.621 429.165 105.469 430.046L108.753 434.34ZM112.874 424.633V415.633H107.468V424.633H112.874ZM110.171 412.93H74.1709V418.336H110.171V412.93ZM71.4678 415.633V422.833H76.874V415.633H71.4678Z" fill="#E50539"/>
</g>
<defs>
<filter id="filter0_d_382_447" x="-35.6707" y="-16.8548" width="201.683" height="509.749" filterUnits="userSpaceOnUse" color-interpolation-filters="sRGB">
<feFlood flood-opacity="0" result="BackgroundImageFix"/>
<feColorMatrix in="SourceAlpha" type="matrix" values="0 0 0 0 0 0 0 0 0 0 0 0 0 0 0 0 0 0 127 0" result="hardAlpha"/>
<feOffset/>
<feGaussianBlur stdDeviation="18.0209"/>
<feComposite in2="hardAlpha" operator="out"/>
<feColorMatrix type="matrix" values="0 0 0 0 0 0 0 0 0 0 0 0 0 0 0 0 0 0 0.6 0"/>
<feBlend mode="normal" in2="BackgroundImageFix" result="effect1_dropShadow_382_447"/>
<feBlend mode="normal" in="SourceGraphic" in2="effect1_dropShadow_382_447" result="shape"/>
</filter>
</defs>
</svg>
